# xmcd
#
# Track frame offsets:
#	150
#	33626
#	56294
#	77153
#	87463
#	105025
#	120411
#	168308
#	191575
#	204143
#	217603
#	228727
#	241549
#	253113
#	264578
#	275811
#	290581
#	306118
#
# Disc length: 4273 seconds
#
# Revision: 1
# Processed by: cddbd v1.5.2PL0 Copyright (c) Steve Scherf et al.
# Submitted via: audiograbber 1.83.01
#
DISCID=ef10af12
DTITLE=Bo Diddley - You Can't Judge A Book By The Cover
DYEAR=1984
DGENRE=Blues
TTITLE0=Intro, Bo Diddley Vamp
TTITLE1=Doctor Jekyll
TTITLE2=Everleen
TTITLE3=Don't You Know Where I've Been
TTITLE4=You Can't Judge A Book By The Cover
TTITLE5=Roadrunner
TTITLE6=I'm A Man
TTITLE7=Mona (I Need You Baby)
TTITLE8=Bo Diddley
TTITLE9=I'm A Man
TTITLE10=Diddley Daddy
TTITLE11=Pretty Thing
TTITLE12=I'm Looking For A Woman
TTITLE13=Diddy Wah Diddy
TTITLE14=Who Do You Love
TTITLE15=I'm Bad
TTITLE16=Copy And Robbers
TTITLE17=Down Home Special
EXTD=
EXTT0=
EXTT1=
EXTT2=
EXTT3=
EXTT4=
EXTT5=
EXTT6=
EXTT7=
EXTT8=
EXTT9=
EXTT10=
EXTT11=
EXTT12=
EXTT13=
EXTT14=
EXTT15=
EXTT16=
EXTT17=
PLAYORDER=
